<?xml version="1.0" standalone="no"?>
<!DOCTYPE svg PUBLIC "-//W3C//DTD SVG 20010904//EN"
 "http://www.w3.org/TR/2001/REC-SVG-20010904/DTD/svg10.dtd">
<svg version="1.0" xmlns="http://www.w3.org/2000/svg"
 width="512.000000pt" height="512.000000pt" viewBox="0 0 512.000000 512.000000"
 preserveAspectRatio="xMidYMid meet">

<g transform="translate(0.000000,512.000000) scale(0.100000,-0.100000)"
fill="#000000" stroke="none">
<path d="M2360 4763 c-913 -92 -1652 -771 -1826 -1678 -25 -128 -27 -166 -32
-449 -4 -328 3 -454 39 -636 151 -764 747 -1391 1504 -1585 199 -51 365 -69
580 -62 254 8 455 48 675 133 726 283 1227 939 1310 1716 13 126 13 590 0 716
-41 381 -178 729 -406 1033 -98 129 -93 126 -137 81 l-37 -38 51 -65 c290
-359 443 -822 426 -1284 -46 -1214 -1160 -2087 -2349 -1840 -673 139 -1230
637 -1448 1295 -210 628 -80 1331 340 1845 75 91 246 255 340 326 709 532
1692 517 2385 -35 l70 -55 37 36 c20 20 35 40 32 45 -3 4 -35 32 -72 61 -291
232 -650 384 -1017 432 -104 13 -366 18 -465 8z m-1532 -3163 c318 -493 812
-818 1398 -921 170 -30 473 -32 639 -5 221 35 381 85 582 181 390 186 714 492
920 869 72 131 18 -23 -67 -194 -154 -307 -424 -602 -713 -779 -456 -279
-1002 -363 -1509 -232 -607 157 -1096 589 -1334 1178 -42 106 -44 127 -3 48
18 -33 56 -98 87 -145z"/>
<path d="M2574 3785 l-25 -25 1 -717 c1 -697 1 -720 -19 -783 -38 -120 -115
-183 -226 -184 -157 0 -276 131 -262 286 9 104 66 162 202 206 34 11 81 23
105 27 80 13 80 12 80 236 0 242 4 234 -116 226 -355 -25 -615 -230 -695 -547
-32 -124 -24 -292 18 -413 42 -121 85 -188 178 -283 129 -130 281 -194 461
-194 190 0 353 69 495 210 74 73 93 100 138 190 89 182 94 211 99 608 2 188 5
342 7 342 1 0 34 -13 71 -29 106 -45 190 -64 287 -65 121 -1 117 -9 117 225 0
153 -3 189 -15 199 -8 7 -48 18 -89 25 -191 33 -312 144 -360 332 -9 34 -16
73 -16 87 0 14 -9 35 -20 46 -19 19 -33 20 -205 20 -185 0 -186 0 -211 -25z
m330 -97 c71 -272 186 -403 398 -457 l73 -19 3 -117 3 -117 -53 7 c-84 12
-176 43 -276 95 -90 47 -122 53 -140 26 -4 -6 -10 -191 -13 -411 -6 -449 -8
-463 -82 -615 -33 -69 -58 -102 -127 -170 -135 -135 -263 -187 -440 -177 -234
12 -420 157 -507 395 -34 91 -43 258 -19 352 64 256 262 422 554 464 l42 6 0
-123 0 -124 -67 -18 c-96 -26 -195 -79 -238 -126 -61 -68 -80 -120 -80 -224 0
-78 4 -98 29 -152 50 -109 158 -190 285 -213 146 -26 288 45 356 179 57 113
56 106 55 851 0 377 2 689 6 693 4 4 58 7 121 7 82 0 115 -3 117 -12z"/>
</g>
</svg>
