<?xml version="1.0" standalone="no"?>
<!DOCTYPE svg PUBLIC "-//W3C//DTD SVG 20010904//EN"
 "http://www.w3.org/TR/2001/REC-SVG-20010904/DTD/svg10.dtd">
<svg version="1.0" xmlns="http://www.w3.org/2000/svg"
 width="512.000000pt" height="512.000000pt" viewBox="0 0 512.000000 512.000000"
 preserveAspectRatio="xMidYMid meet">

<g transform="translate(0.000000,512.000000) scale(0.100000,-0.100000)"
fill="#000000" stroke="none">
<path d="M2360 4763 c-913 -92 -1652 -771 -1826 -1678 -25 -128 -27 -166 -32
-449 -4 -328 3 -454 39 -636 151 -764 747 -1391 1504 -1585 199 -51 365 -69
580 -62 254 8 455 48 675 133 726 283 1227 939 1310 1716 13 126 13 590 0 716
-41 381 -178 729 -406 1033 -98 129 -93 126 -137 81 l-37 -38 51 -65 c290
-359 443 -822 426 -1284 -46 -1214 -1160 -2087 -2349 -1840 -673 139 -1230
637 -1448 1295 -210 628 -80 1331 340 1845 75 91 246 255 340 326 709 532
1692 517 2385 -35 l70 -55 37 36 c20 20 35 40 32 45 -3 4 -35 32 -72 61 -291
232 -650 384 -1017 432 -104 13 -366 18 -465 8z m-1532 -3163 c318 -493 812
-818 1398 -921 170 -30 473 -32 639 -5 221 35 381 85 582 181 390 186 714 492
920 869 72 131 18 -23 -67 -194 -154 -307 -424 -602 -713 -779 -456 -279
-1002 -363 -1509 -232 -607 157 -1096 589 -1334 1178 -42 106 -44 127 -3 48
18 -33 56 -98 87 -145z"/>
<path d="M2765 3869 c-148 -22 -252 -75 -365 -189 -147 -146 -190 -262 -190
-517 l0 -153 -144 0 c-138 0 -146 -1 -160 -22 -14 -19 -16 -68 -16 -334 0
-286 1 -312 18 -327 14 -13 45 -17 157 -19 l140 -3 3 -364 c1 -249 6 -369 13
-378 9 -10 77 -13 335 -13 280 0 325 2 338 16 14 13 16 62 16 380 l0 364 144
0 c138 0 146 1 160 22 14 19 16 67 16 323 0 222 -4 307 -13 325 -12 25 -14 25
-160 28 l-147 3 0 60 c0 99 0 99 148 99 95 0 133 4 148 14 18 14 19 31 22 330
l3 316 -25 25 c-25 25 -26 25 -203 24 -98 -1 -205 -5 -238 -10z m350 -344 l0
-240 -107 -5 c-115 -5 -138 -15 -182 -74 -18 -23 -21 -45 -24 -146 -5 -163 -8
-160 178 -160 l140 0 0 -240 0 -240 -140 0 c-127 0 -142 -2 -160 -20 -19 -19
-20 -33 -20 -380 l0 -360 -240 0 -239 0 -3 366 c-3 349 -4 366 -22 380 -15 10
-54 14 -158 14 l-138 0 0 240 0 240 140 0 c191 0 180 -13 180 221 0 201 11
265 61 359 79 148 230 254 399 280 30 4 118 7 195 6 l140 -1 0 -240z"/>
</g>
</svg>
