<?xml version="1.0" standalone="no"?>
<!DOCTYPE svg PUBLIC "-//W3C//DTD SVG 20010904//EN"
 "http://www.w3.org/TR/2001/REC-SVG-20010904/DTD/svg10.dtd">
<svg version="1.0" xmlns="http://www.w3.org/2000/svg"
 width="512.000000pt" height="512.000000pt" viewBox="0 0 512.000000 512.000000"
 preserveAspectRatio="xMidYMid meet">

<g transform="translate(0.000000,512.000000) scale(0.100000,-0.100000)"
fill="#000000" stroke="none">
<path d="M2360 4763 c-913 -92 -1652 -771 -1826 -1678 -25 -128 -27 -166 -32
-449 -4 -328 3 -454 39 -636 151 -764 747 -1391 1504 -1585 199 -51 365 -69
580 -62 254 8 455 48 675 133 726 283 1227 939 1310 1716 13 126 13 590 0 716
-41 381 -178 729 -406 1033 -98 129 -93 126 -137 81 l-37 -38 51 -65 c290
-359 443 -822 426 -1284 -46 -1214 -1160 -2087 -2349 -1840 -673 139 -1230
637 -1448 1295 -210 628 -80 1331 340 1845 75 91 246 255 340 326 709 532
1692 517 2385 -35 l70 -55 37 36 c20 20 35 40 32 45 -3 4 -35 32 -72 61 -291
232 -650 384 -1017 432 -104 13 -366 18 -465 8z m-1532 -3163 c318 -493 812
-818 1398 -921 170 -30 473 -32 639 -5 221 35 381 85 582 181 390 186 714 492
920 869 72 131 18 -23 -67 -194 -154 -307 -424 -602 -713 -779 -456 -279
-1002 -363 -1509 -232 -607 157 -1096 589 -1334 1178 -42 106 -44 127 -3 48
18 -33 56 -98 87 -145z"/>
<path d="M2830 3566 c-162 -46 -295 -177 -335 -331 -8 -32 -15 -80 -15 -106
l0 -48 -37 5 c-250 35 -510 172 -679 356 -62 69 -85 78 -117 45 -46 -45 -71
-131 -71 -242 0 -99 1 -104 49 -217 5 -13 3 -18 -7 -18 -30 0 -48 -35 -48 -91
1 -98 60 -229 138 -303 28 -26 30 -30 16 -51 -12 -19 -12 -27 1 -65 36 -102
116 -192 220 -246 30 -16 55 -32 55 -36 0 -13 -170 -67 -249 -78 -46 -7 -115
-10 -154 -7 -63 4 -73 2 -93 -18 -43 -43 -19 -72 114 -139 398 -200 895 -172
1258 70 106 70 243 203 313 304 94 134 178 323 211 473 6 27 14 98 19 158 l9
110 69 67 c83 79 133 147 133 177 0 34 -33 58 -68 50 l-30 -6 25 61 c23 57 23
63 8 86 -21 32 -38 30 -126 -10 -41 -19 -96 -40 -122 -46 -44 -12 -48 -11 -77
13 -38 32 -124 73 -181 86 -59 14 -174 12 -229 -3z m226 -111 c46 -14 108 -49
165 -95 22 -18 30 -20 70 -11 25 6 54 13 65 17 10 4 -2 -13 -28 -38 -55 -51
-59 -68 -23 -97 20 -15 35 -18 63 -14 l37 6 -46 -44 -46 -44 -1 -90 c-3 -159
-40 -311 -112 -460 -63 -130 -117 -204 -229 -315 -160 -157 -323 -246 -541
-293 -121 -26 -359 -28 -465 -5 -93 21 -187 49 -182 54 2 2 39 13 83 24 86 22
234 91 302 140 32 25 42 38 42 61 0 36 -28 55 -97 62 -70 8 -160 55 -213 114
l-45 48 59 7 c63 8 96 29 96 61 0 26 -28 57 -50 57 -30 0 -134 58 -173 96 -42
41 -82 104 -92 146 -7 27 -6 27 26 18 19 -6 53 -10 76 -10 34 0 46 5 58 24 20
30 7 61 -41 96 -83 61 -141 194 -131 303 3 32 8 61 11 64 3 4 32 -16 63 -44
192 -166 400 -268 627 -308 114 -20 175 -19 197 1 15 14 17 28 12 102 -6 101
14 169 71 244 88 115 250 166 392 123z"/>
</g>
</svg>
