<?xml version="1.0" standalone="no"?>
<!DOCTYPE svg PUBLIC "-//W3C//DTD SVG 20010904//EN"
 "http://www.w3.org/TR/2001/REC-SVG-20010904/DTD/svg10.dtd">
<svg version="1.0" xmlns="http://www.w3.org/2000/svg"
 width="512.000000pt" height="512.000000pt" viewBox="0 0 512.000000 512.000000"
 preserveAspectRatio="xMidYMid meet">

<g transform="translate(0.000000,512.000000) scale(0.100000,-0.100000)"
fill="#000000" stroke="none">
<path d="M2360 4763 c-913 -92 -1652 -771 -1826 -1678 -25 -128 -27 -166 -32
-449 -4 -328 3 -454 39 -636 151 -764 747 -1391 1504 -1585 199 -51 365 -69
580 -62 254 8 455 48 675 133 726 283 1227 939 1310 1716 13 126 13 590 0 716
-41 381 -178 729 -406 1033 -98 129 -93 126 -137 81 l-37 -38 51 -65 c290
-359 443 -822 426 -1284 -46 -1214 -1160 -2087 -2349 -1840 -673 139 -1230
637 -1448 1295 -210 628 -80 1331 340 1845 75 91 246 255 340 326 709 532
1692 517 2385 -35 l70 -55 37 36 c20 20 35 40 32 45 -3 4 -35 32 -72 61 -291
232 -650 384 -1017 432 -104 13 -366 18 -465 8z m-1532 -3163 c318 -493 812
-818 1398 -921 170 -30 473 -32 639 -5 221 35 381 85 582 181 390 186 714 492
920 869 72 131 18 -23 -67 -194 -154 -307 -424 -602 -713 -779 -456 -279
-1002 -363 -1509 -232 -607 157 -1096 589 -1334 1178 -42 106 -44 127 -3 48
18 -33 56 -98 87 -145z"/>
<path d="M3513 4079 c-53 -10 -75 -22 -125 -67 -176 -159 -61 -452 177 -452
101 1 190 55 238 145 16 30 22 58 22 115 0 64 -4 82 -29 128 -57 102 -168 154
-283 131z m131 -127 c42 -25 68 -64 73 -114 19 -166 -209 -236 -284 -88 -28
54 -29 89 -4 139 24 45 39 59 88 77 42 15 84 10 127 -14z"/>
<path d="M2405 3750 c-214 -34 -430 -145 -585 -300 -394 -399 -407 -1036 -30
-1443 273 -294 671 -410 1051 -306 109 29 282 118 374 191 97 78 167 157 239
273 190 301 207 696 45 1017 -135 269 -384 469 -677 545 -109 28 -311 39 -417
23z m340 -119 c285 -59 527 -242 653 -494 119 -238 134 -530 39 -765 -90 -224
-280 -424 -491 -517 -354 -157 -773 -79 -1046 195 -180 179 -274 409 -273 665
1 238 86 458 242 627 228 247 556 355 876 289z"/>
<path d="M2422 3325 c-215 -47 -411 -238 -469 -456 -24 -93 -21 -245 7 -334
53 -170 169 -308 320 -382 111 -54 173 -68 295 -67 168 1 314 64 436 189 113
115 168 243 176 410 7 122 -9 193 -68 314 -123 250 -416 387 -697 326z m250
-106 c189 -39 358 -208 397 -397 73 -350 -223 -672 -573 -623 -282 39 -489
308 -447 581 14 89 38 152 86 224 113 171 331 258 537 215z"/>
</g>
</svg>
