<?xml version="1.0" standalone="no"?>
<!DOCTYPE svg PUBLIC "-//W3C//DTD SVG 20010904//EN"
 "http://www.w3.org/TR/2001/REC-SVG-20010904/DTD/svg10.dtd">
<svg version="1.0" xmlns="http://www.w3.org/2000/svg"
 width="64.000000pt" height="64.000000pt" viewBox="0 0 64.000000 64.000000"
 preserveAspectRatio="xMidYMid meet">

<g transform="translate(0.000000,64.000000) scale(0.100000,-0.100000)"
fill="#000000" stroke="none">
<path d="M269 593 c-15 -2 -51 -19 -80 -36 -169 -101 -170 -373 -2 -473 92
-55 174 -55 266 0 122 73 162 243 89 379 -34 63 -41 52 -8 -14 60 -122 12
-270 -107 -328 -51 -25 -150 -28 -201 -7 -134 56 -188 227 -110 352 65 106
198 144 310 89 69 -34 81 -28 16 8 -47 26 -123 39 -173 30z m-25 -498 c27 -8
61 -15 76 -15 51 0 126 30 170 67 l45 38 -26 -35 c-40 -52 -118 -90 -189 -90
-71 0 -149 38 -189 90 l-26 35 45 -38 c24 -21 67 -44 94 -52z"/>
<path d="M240 340 c0 -76 4 -120 10 -120 18 0 209 113 204 121 -6 10 -193 119
-205 119 -5 0 -9 -51 -9 -120z m162 20 c16 -8 28 -18 28 -21 0 -5 -137 -88
-162 -97 -4 -2 -8 42 -8 98 l0 101 58 -32 c31 -18 69 -40 84 -49z"/>
</g>
</svg>
